<?xml version="1.0" encoding="utf-8"?>
<!-- Generator: Adobe Illustrator 27.8.0, SVG Export Plug-In . SVG Version: 6.00 Build 0)  -->
<svg version="1.1" id="Camada_1" xmlns="http://www.w3.org/2000/svg" xmlns:xlink="http://www.w3.org/1999/xlink" x="0px" y="0px"
	 viewBox="0 0 512 512" style="enable-background:new 0 0 512 512;" xml:space="preserve">
<style type="text/css">
	.st0{fill:url(#SVGID_1_);}
	.st1{fill:url(#SVGID_00000157297738739146854940000001847869250835811754_);}
	.st2{opacity:0.4;fill:url(#SVGID_00000124846834976335393740000013699266259568222119_);}
	.st3{fill:url(#SVGID_00000150086547194372421920000007447546837464024722_);}
	.st4{fill:url(#SVGID_00000031198876390504642910000008264234462068390279_);}
	.st5{fill:url(#SVGID_00000072243398968426379920000013235633315320079797_);}
	.st6{fill:url(#SVGID_00000026847290812449498960000009973411181583621505_);}
	.st7{fill:url(#SVGID_00000142148784751037725200000018097617865509663382_);}
	.st8{fill:url(#SVGID_00000142885305186104895560000009962403704419422101_);}
	.st9{fill:url(#SVGID_00000124873748768466551800000012361338776317080974_);}
	.st10{fill:url(#SVGID_00000106137118317793499720000012105858394078797196_);}
</style>
<g>
	
		<radialGradient id="SVGID_1_" cx="45.1159" cy="155.7587" r="303.484" gradientTransform="matrix(-1 0 0 1 337.6729 0)" gradientUnits="userSpaceOnUse">
		<stop  offset="0" style="stop-color:#FFF8C8"/>
		<stop  offset="0.1559" style="stop-color:#FFE434"/>
		<stop  offset="1" style="stop-color:#EE7528"/>
	</radialGradient>
	<path class="st0" d="M96.1,256c0,88.3,71.6,159.9,159.9,159.9c88.3,0,159.9-71.6,159.9-159.9c0-88.3-71.6-159.9-159.9-159.9
		C167.7,96.1,96.1,167.7,96.1,256z"/>
	<g>
		
			<radialGradient id="SVGID_00000137101255781481883430000012431614275217336715_" cx="1249.073" cy="-1674.0039" r="45.5554" gradientTransform="matrix(-0.8392 1.1536 -1.6186 -1.3126 -1342.7426 -3451.2432)" gradientUnits="userSpaceOnUse">
			<stop  offset="0" style="stop-color:#FFFFFF"/>
			<stop  offset="1" style="stop-color:#FFFFFF;stop-opacity:0"/>
		</radialGradient>
		<path style="fill:url(#SVGID_00000137101255781481883430000012431614275217336715_);" d="M280.4,239.5
			c-40.7-33-56.6-83.3-35.5-112.4c21.1-29,71.2-25.8,112,7.2c40.7,33,56.6,83.3,35.5,112.3C371.2,275.8,321.1,272.5,280.4,239.5z"/>
		
			<radialGradient id="SVGID_00000089565259626401618090000005267648273690196891_" cx="-2744.0571" cy="2974.5505" r="43.9575" gradientTransform="matrix(-1.1717 -1.1007 0.222 -0.7283 -3709.354 -514.3103)" gradientUnits="userSpaceOnUse">
			<stop  offset="0" style="stop-color:#FFFFFF"/>
			<stop  offset="1" style="stop-color:#FFFFFF;stop-opacity:0"/>
		</radialGradient>
		<path style="opacity:0.4;fill:url(#SVGID_00000089565259626401618090000005267648273690196891_);" d="M114.7,291.3
			c5.4-17.7,32.8-10.4,61.3,16.4c28.5,26.7,47.1,62.7,41.8,80.4c-5.4,17.7-32.8,10.4-61.3-16.4C128,345,109.3,309,114.7,291.3z"/>
	</g>
	
		<radialGradient id="SVGID_00000180352976031939426210000005536925952100817591_" cx="259.5251" cy="11.7518" r="52.806" gradientUnits="userSpaceOnUse">
		<stop  offset="0" style="stop-color:#FFF8C8"/>
		<stop  offset="0.1559" style="stop-color:#FFE434"/>
		<stop  offset="1" style="stop-color:#EE7528"/>
	</radialGradient>
	<path style="fill:url(#SVGID_00000180352976031939426210000005536925952100817591_);" d="M275.4,48.9c0,10.7-8.7,19.4-19.4,19.4
		l0,0c-10.7,0-19.4-8.7-19.4-19.4V21.3C236.6,10.6,245.3,2,256,2l0,0c10.7,0,19.4,8.7,19.4,19.4V48.9z"/>
	
		<radialGradient id="SVGID_00000096046033223822717130000002830138858609187774_" cx="659.7328" cy="-225.1295" r="52.8078" gradientTransform="matrix(0.7071 -0.7071 0.7071 0.7071 -221.5232 706.4805)" gradientUnits="userSpaceOnUse">
		<stop  offset="0" style="stop-color:#FFF8C8"/>
		<stop  offset="0.1559" style="stop-color:#FFE434"/>
		<stop  offset="1" style="stop-color:#EE7528"/>
	</radialGradient>
	<path style="fill:url(#SVGID_00000096046033223822717130000002830138858609187774_);" d="M123.2,95.8c7.6,7.6,7.6,19.9,0,27.4l0,0
		c-7.6,7.6-19.8,7.6-27.4,0l-19.4-19.4c-7.6-7.6-7.6-19.8,0-27.4l0,0c7.6-7.6,19.8-7.6,27.4,0L123.2,95.8z"/>
	
		<radialGradient id="SVGID_00000096044462018510031510000004460114116584413330_" cx="1110.1298" cy="-109.8277" r="52.8056" gradientTransform="matrix(0 -1 1 0 121.5769 1362.6016)" gradientUnits="userSpaceOnUse">
		<stop  offset="0" style="stop-color:#FFF8C8"/>
		<stop  offset="0.1559" style="stop-color:#FFE434"/>
		<stop  offset="1" style="stop-color:#EE7528"/>
	</radialGradient>
	<path style="fill:url(#SVGID_00000096044462018510031510000004460114116584413330_);" d="M48.9,236.6c10.7,0,19.4,8.7,19.4,19.4
		l0,0c0,10.7-8.7,19.4-19.4,19.4H21.4C10.6,275.4,2,266.7,2,256l0,0c0-10.7,8.7-19.4,19.4-19.4H48.9z"/>
	
		<radialGradient id="SVGID_00000049913424443996803600000003239584882630839982_" cx="1347.1747" cy="290.3736" r="52.8082" gradientTransform="matrix(-0.7071 -0.7071 0.7071 -0.7071 828.0566 1584.1238)" gradientUnits="userSpaceOnUse">
		<stop  offset="0" style="stop-color:#FFF8C8"/>
		<stop  offset="0.1559" style="stop-color:#FFE434"/>
		<stop  offset="1" style="stop-color:#EE7528"/>
	</radialGradient>
	<path style="fill:url(#SVGID_00000049913424443996803600000003239584882630839982_);" d="M95.8,388.8c7.6-7.6,19.9-7.6,27.4,0l0,0
		c7.6,7.6,7.6,19.8,0,27.4l-19.4,19.5c-7.6,7.6-19.8,7.6-27.4,0l0,0c-7.6-7.6-7.6-19.9,0-27.4L95.8,388.8z"/>
	
		<radialGradient id="SVGID_00000062189355176137841500000002846096520350733226_" cx="1231.7078" cy="740.7772" r="52.8071" gradientTransform="matrix(-1 0 0 -1 1484.1758 1241.0254)" gradientUnits="userSpaceOnUse">
		<stop  offset="0" style="stop-color:#FFF8C8"/>
		<stop  offset="0.1559" style="stop-color:#FFE434"/>
		<stop  offset="1" style="stop-color:#EE7528"/>
	</radialGradient>
	<path style="fill:url(#SVGID_00000062189355176137841500000002846096520350733226_);" d="M236.6,463.1c0-10.7,8.7-19.4,19.4-19.4
		l0,0c10.7,0,19.4,8.7,19.4,19.4l0,27.5c0,10.7-8.7,19.4-19.4,19.4l0,0c-10.7,0-19.4-8.7-19.4-19.4L236.6,463.1z"/>
	
		<radialGradient id="SVGID_00000049939800710957478750000013227404670298389158_" cx="831.6646" cy="977.8171" r="52.8086" gradientTransform="matrix(-0.7071 0.7071 -0.7071 -0.7071 1705.7019 534.5479)" gradientUnits="userSpaceOnUse">
		<stop  offset="0" style="stop-color:#FFF8C8"/>
		<stop  offset="0.1559" style="stop-color:#FFE434"/>
		<stop  offset="1" style="stop-color:#EE7528"/>
	</radialGradient>
	<path style="fill:url(#SVGID_00000049939800710957478750000013227404670298389158_);" d="M388.8,416.2c-7.6-7.6-7.6-19.9,0-27.4
		l0,0c7.6-7.6,19.8-7.6,27.4,0l19.5,19.4c7.6,7.6,7.6,19.9,0,27.4l0,0c-7.6,7.6-19.9,7.6-27.4,0L388.8,416.2z"/>
	
		<radialGradient id="SVGID_00000000943083496255058020000002958011663656925119_" cx="381.0968" cy="862.3547" r="52.8056" gradientTransform="matrix(0 1 -1 0 1362.6055 -121.5742)" gradientUnits="userSpaceOnUse">
		<stop  offset="0" style="stop-color:#FFF8C8"/>
		<stop  offset="0.1559" style="stop-color:#FFE434"/>
		<stop  offset="1" style="stop-color:#EE7528"/>
	</radialGradient>
	<path style="fill:url(#SVGID_00000000943083496255058020000002958011663656925119_);" d="M463.1,275.4c-10.7,0-19.4-8.7-19.4-19.4
		l0,0c0-10.7,8.7-19.4,19.4-19.4h27.5c10.7,0,19.4,8.7,19.4,19.4l0,0c0,10.7-8.7,19.4-19.4,19.4H463.1z"/>
	
		<radialGradient id="SVGID_00000005955883961377532020000011040038596683983010_" cx="144.2182" cy="462.311" r="52.8075" gradientTransform="matrix(0.7071 0.7071 -0.7071 0.7071 656.126 -343.1003)" gradientUnits="userSpaceOnUse">
		<stop  offset="0" style="stop-color:#FFF8C8"/>
		<stop  offset="0.1559" style="stop-color:#FFE434"/>
		<stop  offset="1" style="stop-color:#EE7528"/>
	</radialGradient>
	<path style="fill:url(#SVGID_00000005955883961377532020000011040038596683983010_);" d="M416.2,123.2c-7.6,7.6-19.8,7.6-27.4,0
		l0,0c-7.6-7.6-7.6-19.8,0-27.4l19.4-19.4c7.6-7.6,19.9-7.6,27.4,0l0,0c7.6,7.6,7.6,19.9,0,27.4L416.2,123.2z"/>
</g>
</svg>
